<svg xmlns="http://www.w3.org/2000/svg" width="43.769" height="40" viewBox="0 0 43.769 40"><defs><clipPath id="clip-path"><path id="Прямоугольник_181" data-name="Прямоугольник 181" fill="none" d="M0 0h43.769v40H0z"/></clipPath></defs><g id="Сгруппировать_240" data-name="Сгруппировать 240"><g id="Сгруппировать_239" data-name="Сгруппировать 239" clip-path="url(#clip-path)"><path id="Контур_247" data-name="Контур 247" d="M11.02 36.482a.637.637 0 01-.371-1.155l31.36-22.461a.637.637 0 01.741 1.034L11.39 36.363a.635.635 0 01-.37.119" transform="translate(-3.767 -4.625)" fill="#161615"/><path id="Контур_248" data-name="Контур 248" d="M23.929 24.648a.637.637 0 01-.585-.384L14.868 4.771a.637.637 0 111.169-.508l8.476 19.494a.636.636 0 01-.331.838.624.624 0 01-.253.053" transform="translate(-5.375 -1.408)" fill="#161615"/><path id="Контур_249" data-name="Контур 249" d="M39.443 17.91a.68.68 0 01-.147-.017L18.743 13.04a.637.637 0 11.292-1.241l20.553 4.852a.637.637 0 01-.146 1.258" transform="translate(-6.622 -4.275)" fill="#161615"/><path id="Контур_250" data-name="Контур 250" d="M34.582 42.869a.637.637 0 01-.587-.389L26.776 25.4l-11.413-2.67-13.31 13.591a.638.638 0 01-.911-.893L14.7 21.585a.639.639 0 01.6-.175l12.078 2.825a.635.635 0 01.442.372l7.345 17.375a.637.637 0 01-.587.886" transform="translate(-.348 -7.762)" fill="#161615"/><path id="Контур_251" data-name="Контур 251" d="M28.311 32.582a.637.637 0 01-.178-1.249l23.661-6.921a.637.637 0 11.357 1.223l-23.662 6.922a.639.639 0 01-.178.025" transform="translate(-10.04 -8.848)" fill="#161615"/><path id="Контур_252" data-name="Контур 252" d="M26.614 38.567h-.064a.637.637 0 01-.571-.7c.034-.391.033-5.176.02-10.2l-8.35-1.831a.634.634 0 01-.263-.125L6.3 16.814a.638.638 0 01-.052-.947L21.925.187a.637.637 0 011.081.537l-2.365 17.118L32.9 2.43a.637.637 0 011.09.17l8.687 22.955a.637.637 0 01-.775.837l-14.648-4.28c0 1 .011 2.658.016 4.532l6.754 1.481a.637.637 0 11-.273 1.244l-6.478-1.42c.012 4.5.016 9.622-.027 10.044a.637.637 0 01-.633.573m-8.546-13.94L26 26.365c-.005-1.778-.012-3.539-.019-5.1a.637.637 0 01.816-.615l14.241 4.162L33.195 4.1l-13 16.356a.637.637 0 01-1.13-.484l2.419-17.543L7.649 16.265z" transform="translate(-2.198)" fill="#161615"/><path id="Контур_253" data-name="Контур 253" d="M25.539 53.59a.637.637 0 01-.182-1.248l16.315-4.872a.637.637 0 01.365 1.221l-16.316 4.873a.647.647 0 01-.182.027" transform="translate(-9.035 -17.213)" fill="#161615"/><path id="Контур_254" data-name="Контур 254" d="M27.717 50.439a.632.632 0 01-.385-.13L18.5 43.6a.637.637 0 01.772-1.014l8.828 6.71a.637.637 0 01-.386 1.144" transform="translate(-6.622 -15.403)" fill="#161615"/><path id="Контур_255" data-name="Контур 255" d="M43.706 9.7a.619.619 0 01-.113-.01L30.527 7.361a.637.637 0 01.224-1.255l13.066 2.331a.637.637 0 01-.111 1.263" transform="translate(-10.885 -2.212)" fill="#161615"/><path id="Контур_256" data-name="Контур 256" d="M12.127 32.594a.637.637 0 01-.6-.849l5.438-15.468a.637.637 0 111.2.423l-5.437 15.468a.637.637 0 01-.6.426" transform="translate(-4.169 -5.751)" fill="#161615"/><path id="Контур_257" data-name="Контур 257" d="M16.322 4.21a1.176 1.176 0 11-1.176-1.176 1.176 1.176 0 011.176 1.176" transform="translate(-5.069 -1.101)" fill="#c2c2c1" fill-rule="evenodd"/><path id="Контур_258" data-name="Контур 258" d="M14.782 5.66A1.813 1.813 0 1116.6 3.847a1.816 1.816 0 01-1.818 1.813m0-2.352a.539.539 0 10.54.54.54.54 0 00-.54-.54" transform="translate(-4.705 -.738)" fill="#161615"/><path id="Контур_259" data-name="Контур 259" d="M31.4 7.2a1.176 1.176 0 11-1.176-1.176A1.176 1.176 0 0131.4 7.2" transform="translate(-10.538 -2.187)" fill="#c2c2c1" fill-rule="evenodd"/><path id="Контур_260" data-name="Контур 260" d="M29.858 8.653a1.813 1.813 0 111.814-1.813 1.816 1.816 0 01-1.814 1.813m0-2.352a.539.539 0 10.54.54.54.54 0 00-.54-.54" transform="translate(-10.175 -1.824)" fill="#161615"/><path id="Контур_261" data-name="Контур 261" d="M30.177 14.74A1.176 1.176 0 1129 13.564a1.176 1.176 0 011.176 1.176" transform="translate(-10.095 -4.921)" fill="#c2c2c1" fill-rule="evenodd"/><path id="Контур_262" data-name="Контур 262" d="M28.638 16.19a1.814 1.814 0 111.814-1.813 1.816 1.816 0 01-1.814 1.813m0-2.353a.539.539 0 10.54.54.54.54 0 00-.54-.54" transform="translate(-9.733 -4.558)" fill="#161615"/><path id="Контур_263" data-name="Контур 263" d="M49.354 2.99a1.176 1.176 0 11-1.176-1.176 1.176 1.176 0 011.176 1.176" transform="translate(-17.053 -.658)" fill="#c2c2c1" fill-rule="evenodd"/><path id="Контур_264" data-name="Контур 264" d="M47.815 4.441a1.813 1.813 0 111.814-1.813 1.816 1.816 0 01-1.814 1.813m0-2.352a.539.539 0 10.54.539.539.539 0 00-.54-.539" transform="translate(-16.69 -.296)" fill="#161615"/><path id="Контур_265" data-name="Контур 265" d="M44.92 8.865a1.176 1.176 0 11-1.176-1.176 1.176 1.176 0 011.176 1.176" transform="translate(-15.444 -2.79)" fill="#c2c2c1" fill-rule="evenodd"/><path id="Контур_266" data-name="Контур 266" d="M43.381 10.316A1.813 1.813 0 1145.194 8.5a1.816 1.816 0 01-1.813 1.813m0-2.352a.539.539 0 10.539.539.54.54 0 00-.539-.539" transform="translate(-15.081 -2.427)" fill="#161615"/><path id="Контур_267" data-name="Контур 267" d="M52.014 10.085a1.176 1.176 0 11-1.176-1.176 1.176 1.176 0 011.176 1.176" transform="translate(-18.018 -3.233)" fill="#c2c2c1" fill-rule="evenodd"/><path id="Контур_268" data-name="Контур 268" d="M50.475 11.535a1.813 1.813 0 111.814-1.813 1.815 1.815 0 01-1.814 1.813m0-2.352a.539.539 0 10.54.54.54.54 0 00-.54-.54" transform="translate(-17.655 -2.869)" fill="#161615"/><path id="Контур_269" data-name="Контур 269" d="M53.788 18.841a1.176 1.176 0 11-1.176-1.176 1.176 1.176 0 011.176 1.176" transform="translate(-18.662 -6.409)" fill="#c2c2c1" fill-rule="evenodd"/><path id="Контур_270" data-name="Контур 270" d="M52.248 20.292a1.813 1.813 0 111.814-1.813 1.815 1.815 0 01-1.814 1.813m0-2.352a.539.539 0 10.54.54.54.54 0 00-.54-.54" transform="translate(-18.299 -6.047)" fill="#161615"/><path id="Контур_271" data-name="Контур 271" d="M58.333 27.044a1.176 1.176 0 11-1.176-1.176 1.176 1.176 0 011.176 1.176" transform="translate(-20.311 -9.386)" fill="#c2c2c1" fill-rule="evenodd"/><path id="Контур_272" data-name="Контур 272" d="M56.793 28.495a1.813 1.813 0 111.814-1.813 1.816 1.816 0 01-1.814 1.813m0-2.352a.539.539 0 10.54.539.539.539 0 00-.54-.539" transform="translate(-19.948 -9.023)" fill="#161615"/><path id="Контур_273" data-name="Контур 273" d="M20.091 12.745a1.177 1.177 0 11-1.177-1.176 1.177 1.177 0 011.177 1.176" transform="translate(-6.436 -4.198)" fill="#c2c2c1" fill-rule="evenodd"/><path id="Контур_274" data-name="Контур 274" d="M18.551 14.195a1.813 1.813 0 111.814-1.813 1.815 1.815 0 01-1.814 1.813m0-2.352a.539.539 0 10.54.54.54.54 0 00-.54-.54" transform="translate(-6.073 -3.834)" fill="#161615"/><path id="Контур_275" data-name="Контур 275" d="M7.417 24.714a1.176 1.176 0 11-1.176-1.176 1.176 1.176 0 011.176 1.176" transform="translate(-1.838 -8.54)" fill="#c2c2c1" fill-rule="evenodd"/><path id="Контур_276" data-name="Контур 276" d="M5.878 26.165a1.813 1.813 0 111.813-1.813 1.816 1.816 0 01-1.813 1.813m0-2.352a.539.539 0 10.539.54.54.54 0 00-.539-.54" transform="translate(-1.474 -8.177)" fill="#161615"/><path id="Контур_277" data-name="Контур 277" d="M15.841 31.143a1.176 1.176 0 11-1.176-1.176 1.176 1.176 0 011.176 1.176" transform="translate(-4.894 -10.873)" fill="#c2c2c1" fill-rule="evenodd"/><path id="Контур_278" data-name="Контур 278" d="M14.3 32.595a1.813 1.813 0 111.814-1.813 1.816 1.816 0 01-1.814 1.813m0-2.352a.539.539 0 10.54.539.539.539 0 00-.54-.539" transform="translate(-4.531 -10.51)" fill="#161615"/><path id="Контур_279" data-name="Контур 279" d="M24.857 39.348a1.176 1.176 0 11-1.176-1.176 1.176 1.176 0 011.176 1.176" transform="translate(-8.165 -13.85)" fill="#c2c2c1" fill-rule="evenodd"/><path id="Контур_280" data-name="Контур 280" d="M23.318 40.8a1.813 1.813 0 111.814-1.813 1.815 1.815 0 01-1.814 1.813m0-2.352a.539.539 0 10.54.54.54.54 0 00-.54-.54" transform="translate(-7.802 -13.487)" fill="#161615"/><path id="Контур_281" data-name="Контур 281" d="M28.4 29.261a1.176 1.176 0 11-1.176-1.176 1.176 1.176 0 011.176 1.176" transform="translate(-9.452 -10.19)" fill="#c2c2c1" fill-rule="evenodd"/><path id="Контур_282" data-name="Контур 282" d="M26.864 30.712a1.813 1.813 0 111.814-1.812 1.816 1.816 0 01-1.814 1.813m0-2.352a.539.539 0 10.54.539.539.539 0 00-.54-.539" transform="translate(-9.089 -9.827)" fill="#161615"/><path id="Контур_283" data-name="Контур 283" d="M42.7 26.157a1.176 1.176 0 11-1.176-1.176 1.176 1.176 0 011.176 1.176" transform="translate(-14.64 -9.064)" fill="#c2c2c1" fill-rule="evenodd"/><path id="Контур_284" data-name="Контур 284" d="M41.164 27.608a1.813 1.813 0 111.813-1.813 1.816 1.816 0 01-1.813 1.813m0-2.352a.539.539 0 10.539.539.54.54 0 00-.539-.539" transform="translate(-14.277 -8.701)" fill="#161615"/><path id="Контур_285" data-name="Контур 285" d="M39.821 16.514a1.176 1.176 0 11-1.176-1.176 1.176 1.176 0 011.176 1.176" transform="translate(-13.594 -5.565)" fill="#c2c2c1" fill-rule="evenodd"/><path id="Контур_286" data-name="Контур 286" d="M38.282 17.965a1.813 1.813 0 111.818-1.814 1.816 1.816 0 01-1.813 1.813m0-2.352a.539.539 0 10.539.539.54.54 0 00-.539-.539" transform="translate(-13.231 -5.202)" fill="#161615"/><path id="Контур_287" data-name="Контур 287" d="M63.1 39.791a1.176 1.176 0 11-1.176-1.176 1.176 1.176 0 011.176 1.176" transform="translate(-22.04 -14.01)" fill="#c2c2c1" fill-rule="evenodd"/><path id="Контур_288" data-name="Контур 288" d="M61.56 41.242a1.813 1.813 0 111.814-1.813 1.815 1.815 0 01-1.814 1.813m0-2.352a.539.539 0 10.54.54.54.54 0 00-.54-.54" transform="translate(-21.677 -13.648)" fill="#161615"/><path id="Контур_289" data-name="Контур 289" d="M46.954 35.69a1.176 1.176 0 11-1.176-1.176 1.176 1.176 0 011.176 1.176" transform="translate(-16.182 -12.522)" fill="#c2c2c1" fill-rule="evenodd"/><path id="Контур_290" data-name="Контур 290" d="M45.414 37.141a1.813 1.813 0 111.814-1.813 1.815 1.815 0 01-1.814 1.813m0-2.352a.539.539 0 10.54.54.54.54 0 00-.54-.54" transform="translate(-15.819 -12.16)" fill="#161615"/><path id="Контур_291" data-name="Контур 291" d="M39.084 33.917a1.177 1.177 0 11-1.177-1.176 1.177 1.177 0 011.177 1.176" transform="translate(-13.327 -11.879)" fill="#c2c2c1" fill-rule="evenodd"/><path id="Контур_292" data-name="Контур 292" d="M37.544 35.367a1.813 1.813 0 111.814-1.813 1.815 1.815 0 01-1.814 1.813m0-2.352a.539.539 0 10.54.54.54.54 0 00-.54-.54" transform="translate(-12.964 -11.516)" fill="#161615"/><path id="Контур_293" data-name="Контур 293" d="M39.156 42.23a1.176 1.176 0 11-1.176-1.176 1.176 1.176 0 011.176 1.176" transform="translate(-13.353 -14.895)" fill="#c2c2c1" fill-rule="evenodd"/><path id="Контур_294" data-name="Контур 294" d="M37.617 43.681a1.813 1.813 0 111.813-1.813 1.816 1.816 0 01-1.813 1.813m0-2.352a.539.539 0 10.539.54.54.54 0 00-.539-.54" transform="translate(-12.99 -14.532)" fill="#161615"/><path id="Контур_295" data-name="Контур 295" d="M49.836 43.671a1.176 1.176 0 11-1.176-1.176 1.176 1.176 0 011.176 1.176" transform="translate(-17.228 -15.418)" fill="#c2c2c1" fill-rule="evenodd"/><path id="Контур_296" data-name="Контур 296" d="M48.3 45.122a1.813 1.813 0 111.814-1.813 1.816 1.816 0 01-1.814 1.813m0-2.352a.539.539 0 10.54.539.539.539 0 00-.54-.539" transform="translate(-16.865 -15.055)" fill="#161615"/><path id="Контур_297" data-name="Контур 297" d="M54.241 53.608a1.176 1.176 0 11-1.176-1.176 1.177 1.177 0 011.176 1.176" transform="translate(-18.826 -19.023)" fill="#c2c2c1" fill-rule="evenodd"/><path id="Контур_298" data-name="Контур 298" d="M52.7 55.059a1.813 1.813 0 111.813-1.813 1.816 1.816 0 01-1.813 1.813m0-2.352a.539.539 0 10.539.54.54.54 0 00-.539-.54" transform="translate(-18.463 -18.661)" fill="#161615"/><path id="Контур_299" data-name="Контур 299" d="M38.611 59.261a1.176 1.176 0 11-1.176-1.176 1.176 1.176 0 011.176 1.176" transform="translate(-13.155 -21.074)" fill="#c2c2c1" fill-rule="evenodd"/><path id="Контур_300" data-name="Контур 300" d="M37.071 60.712a1.813 1.813 0 111.814-1.812 1.816 1.816 0 01-1.814 1.813m0-2.352a.539.539 0 10.54.539.539.539 0 00-.54-.539" transform="translate(-12.792 -20.712)" fill="#161615"/><path id="Контур_301" data-name="Контур 301" d="M11.666 49.213a1.176 1.176 0 11-1.176-1.176 1.176 1.176 0 011.176 1.176" transform="translate(-3.379 -17.429)" fill="#c2c2c1" fill-rule="evenodd"/><path id="Контур_302" data-name="Контур 302" d="M10.127 50.664a1.813 1.813 0 111.813-1.813 1.816 1.816 0 01-1.813 1.813m0-2.352a.539.539 0 10.539.54.54.54 0 00-.539-.54" transform="translate(-3.016 -17.066)" fill="#161615"/><path id="Контур_303" data-name="Контур 303" d="M25.633 55.864a1.176 1.176 0 11-1.176-1.176 1.176 1.176 0 011.176 1.176" transform="translate(-8.447 -19.842)" fill="#c2c2c1" fill-rule="evenodd"/><path id="Контур_304" data-name="Контур 304" d="M24.094 57.315a1.813 1.813 0 111.813-1.815 1.816 1.816 0 01-1.813 1.813m0-2.352a.539.539 0 10.539.539.54.54 0 00-.539-.539" transform="translate(-8.084 -19.479)" fill="#161615"/><path id="Контур_305" data-name="Контур 305" d="M3.353 42.9a1.176 1.176 0 11-1.176-1.176A1.176 1.176 0 013.353 42.9" transform="translate(-.363 -15.137)" fill="#c2c2c1" fill-rule="evenodd"/><path id="Контур_306" data-name="Контур 306" d="M1.814 44.346a1.813 1.813 0 111.813-1.813 1.816 1.816 0 01-1.813 1.813m0-2.352a.539.539 0 10.539.54.54.54 0 00-.539-.54" transform="translate(0 -14.774)" fill="#161615"/><path id="Контур_307" data-name="Контур 307" d="M13.329 40.162a1.176 1.176 0 11-1.176-1.176 1.176 1.176 0 011.176 1.176" transform="translate(-3.983 -14.145)" fill="#c2c2c1" fill-rule="evenodd"/><path id="Контур_308" data-name="Контур 308" d="M11.789 41.613A1.813 1.813 0 1113.6 39.8a1.816 1.816 0 01-1.814 1.813m0-2.352a.539.539 0 10.54.539.539.539 0 00-.54-.539" transform="translate(-3.619 -13.782)" fill="#161615"/><path id="Контур_309" data-name="Контур 309" d="M61.326 13.226a1.176 1.176 0 11-1.176-1.176 1.176 1.176 0 011.176 1.176" transform="translate(-21.397 -4.372)" fill="#c2c2c1" fill-rule="evenodd"/><path id="Контур_310" data-name="Контур 310" d="M59.786 14.677a1.814 1.814 0 111.814-1.813 1.816 1.816 0 01-1.814 1.813m0-2.353a.539.539 0 10.54.54.54.54 0 00-.54-.54" transform="translate(-21.033 -4.009)" fill="#161615"/><path id="Контур_311" data-name="Контур 311" d="M66.352 24.827a1.176 1.176 0 11-1.176-1.176 1.176 1.176 0 011.176 1.176" transform="translate(-23.22 -8.581)" fill="#c2c2c1" fill-rule="evenodd"/><path id="Контур_312" data-name="Контур 312" d="M64.813 26.278a1.813 1.813 0 111.813-1.813 1.816 1.816 0 01-1.813 1.813m0-2.352a.539.539 0 10.539.539.54.54 0 00-.539-.539" transform="translate(-22.857 -8.218)" fill="#161615"/><path id="Контур_313" data-name="Контур 313" d="M23.97 22.278a1.176 1.176 0 11-1.176-1.178 1.176 1.176 0 011.176 1.176" transform="translate(-7.843 -7.656)" fill="#c2c2c1" fill-rule="evenodd"/><path id="Контур_314" data-name="Контур 314" d="M22.431 23.728a1.813 1.813 0 111.814-1.813 1.816 1.816 0 01-1.814 1.813m0-2.352a.539.539 0 10.54.54.54.54 0 00-.54-.54" transform="translate(-7.48 -7.293)" fill="#161615"/></g></g></svg>