<svg xmlns="http://www.w3.org/2000/svg" width="40.239" height="40.239" viewBox="0 0 40.239 40.239"><defs><clipPath id="clip-path"><path id="Прямоугольник_182" data-name="Прямоугольник 182" fill="none" d="M0 0h40.239v40.239H0z"/></clipPath></defs><g id="Сгруппировать_245" data-name="Сгруппировать 245"><g id="Сгруппировать_244" data-name="Сгруппировать 244" clip-path="url(#clip-path)"><path id="Контур_315" data-name="Контур 315" d="M20.12 40.239a20.12 20.12 0 1120.119-20.12 20.143 20.143 0 01-20.119 20.12m0-37.282a17.162 17.162 0 1017.162 17.162A17.182 17.182 0 0020.12 2.957" fill="#161615"/><path id="Контур_316" data-name="Контур 316" d="M13.023 24.435l-.1.322a2.37 2.37 0 00-.056.234 1.469 1.469 0 00-.044.2c-.018.107-.038.211-.049.315a1.942 1.942 0 00-.024.21c-.007.069-.015.136-.018.206a6.366 6.366 0 00-.005.636 1.781 1.781 0 00.012.2 5.827 5.827 0 00.14.9 6.02 6.02 0 00.422 1.187c.064.128.13.255.2.376.033.06.071.117.108.183s.081.125.122.187c.063.092.123.18.189.259.029.041.058.078.089.118.059.075.12.146.181.215a1.576 1.576 0 00.108.12 2.313 2.313 0 00.166.173c.052.052.1.1.161.157s.1.093.152.133.123.106.186.155c.079.064.158.123.239.178a.478.478 0 00.058.041c.117.081.232.153.348.223a.636.636 0 00.153.082l.178.064.036-.186a4.206 4.206 0 01.179-.636 4.282 4.282 0 01.773-1.312.533.533 0 01.81.694 3.3 3.3 0 00-.578.983 3.235 3.235 0 00-.2 1.127.972.972 0 000 .118v.027a3.37 3.37 0 00.087.614.191.191 0 00.013.055c.023.081.045.159.075.249a.154.154 0 01.009.024v.015l.005.015c.027.069.055.139.084.2a.849.849 0 00.058.116 1.316 1.316 0 00.081.157c.047.082.1.163.152.242a2.162 2.162 0 00.137.182.438.438 0 00.042.054c.052.063.106.123.172.193l.029.028.013.013a1.542 1.542 0 00.155.139c.025.024.047.045.08.072.075.059.151.116.228.167a1.708 1.708 0 00.179.113l.124.072c.083.039.164.08.249.115.048.02.1.04.148.058a3.284 3.284 0 001.113.2 3.236 3.236 0 003.237-3.236v-18.23a3.24 3.24 0 00-5.472-2.344 1.183 1.183 0 00-.106.1.431.431 0 00-.04.046 1.461 1.461 0 00-.148.169l-.018.024h-.006l-.007.01a2.017 2.017 0 00-.144.206.235.235 0 00-.041.066 1.955 1.955 0 00-.119.2.29.29 0 00-.025.05 2.222 2.222 0 00-.1.225l-.007.018a.215.215 0 00-.019.049 1.728 1.728 0 00-.071.2.535.535 0 00-.035.122.727.727 0 00-.027.112 1.38 1.38 0 00-.046.237.292.292 0 00-.012.069 1.37 1.37 0 00-.018.213 1.873 1.873 0 00-.013.214 3.223 3.223 0 00.353 1.467 3.152 3.152 0 00.739.954l.013.012.015.008a.722.722 0 01.087.052 1.749 1.749 0 00.484.251 1.722 1.722 0 001.772-2.83.533.533 0 01.765-.742 2.78 2.78 0 01-.029 3.911 2.86 2.86 0 01-.378.316l-.189.131.186.135a4.235 4.235 0 01.5.429 4.288 4.288 0 011.263 3.045 4.32 4.32 0 01-1.294 3.076.533.533 0 11-.742-.752 3.239 3.239 0 10-4.84-4.279.535.535 0 01-.851-.649 4.309 4.309 0 011.517-1.249 4.359 4.359 0 01.526-.218l.227-.078-.156-.182a4.317 4.317 0 01-.566-.852 4.233 4.233 0 01-.377-1.093l-.043-.221-.2.109c-.1.057-.2.115-.3.177-.078.051-.153.1-.231.158a4.752 4.752 0 00-.465.37 2.626 2.626 0 00-.223.207.9.9 0 00-.093.089 2.9 2.9 0 00-.177.191 1.1 1.1 0 00-.129.146 1.722 1.722 0 00-.135.166 1.992 1.992 0 00-.138.182c-.047.063-.09.125-.134.189l-.049.075a5.854 5.854 0 00-.943 3.2c0 .114 0 .225.012.333v.113c.011.112.022.225.038.336s.03.209.048.31a.6.6 0 00.017.086c.023.113.051.222.077.333a.147.147 0 00.011.036 2.457 2.457 0 00.072.237c.03.1.061.2.1.291a.577.577 0 00.042.109 1.47 1.47 0 00.081.194c.035.082.069.16.109.237.052.112.112.22.174.328a.254.254 0 00.026.047c.058.1.118.2.183.293a5.95 5.95 0 001.458 1.507l.254.183v-.313a4.307 4.307 0 011.291-2.993.532.532 0 11.748.758 3.214 3.214 0 00-.961 2.327 3.124 3.124 0 00.166 1.019.53.53 0 00.018.057 3.251 3.251 0 003.056 2.163 3.19 3.19 0 001.887-.606.535.535 0 01.745.121.53.53 0 01-.121.742 4.326 4.326 0 01-1.178.6l-.207.067.123.18.016.026a2.869 2.869 0 01-.8 3.678.533.533 0 11-.637-.855 1.822 1.822 0 00.535-.632 1.832 1.832 0 00-.033-1.682 1.762 1.762 0 00-.462-.54l-.041-.032h-.051a4.277 4.277 0 01-2.822-1.255 4.353 4.353 0 01-.927-1.377l-.024-.058-.057-.027a7.019 7.019 0 01-2.375-1.818l-.288-.339.011.39a.189.189 0 00-.01.029M30.035 34.2c.05-.059.094-.121.137-.183.055-.079.1-.16.15-.24a1.559 1.559 0 00.084-.16.864.864 0 00.055-.112c.032-.067.06-.138.086-.208l.006-.012v-.013a.234.234 0 01.013-.036c.027-.08.05-.16.072-.237a.252.252 0 00.013-.055 3.374 3.374 0 00.087-.625v-.01a1.211 1.211 0 000-.126 3.219 3.219 0 00-.2-1.127 3.287 3.287 0 00-.577-.983.533.533 0 01.81-.694 4.27 4.27 0 01.773 1.312 4.119 4.119 0 01.178.636l.037.186.178-.064a.547.547 0 00.146-.079c.123-.072.238-.143.348-.222a.592.592 0 00.061-.042c.084-.058.163-.118.238-.179s.127-.1.186-.155.1-.089.158-.138.106-.1.155-.152.115-.115.166-.172a1.488 1.488 0 00.109-.121c.064-.071.124-.143.182-.216q.049-.059.087-.113c.07-.086.132-.174.194-.265.041-.062.082-.124.126-.194s.07-.116.1-.174a7.62 7.62 0 00.2-.381 6.059 6.059 0 00.419-1.184 5.675 5.675 0 00.14-.9 1.57 1.57 0 00.013-.2c0-.092.007-.182.007-.273 0-.123 0-.245-.011-.367 0-.07-.012-.137-.018-.2s-.013-.141-.023-.208a5.608 5.608 0 00-.05-.32 1.467 1.467 0 00-.036-.194 2.795 2.795 0 00-.058-.24 8.535 8.535 0 00-.095-.322v-.422l-.288.339a7.008 7.008 0 01-2.376 1.818l-.056.027-.025.058a4.311 4.311 0 01-3.748 2.633h-.052l-.041.032a1.812 1.812 0 00-.494 2.222 1.826 1.826 0 00.533.632.533.533 0 11-.636.855 2.873 2.873 0 01-.85-1.015 2.832 2.832 0 01-.305-1.285 2.87 2.87 0 01.348-1.371c.009-.012.013-.023.021-.035l.118-.178-.2-.066a4.311 4.311 0 01-1.177-.6.532.532 0 11.623-.863 3.429 3.429 0 00.9.454 3.362 3.362 0 00.991.152 3.248 3.248 0 003.061-2.175l.013-.037a3.182 3.182 0 00.159-1.023 3.2 3.2 0 00-.974-2.318.533.533 0 01.749-.758 4.307 4.307 0 011.291 2.993v.313l.254-.183a5.95 5.95 0 001.458-1.507q.1-.144.18-.288a.474.474 0 00.028-.048 3.8 3.8 0 00.173-.326c.042-.08.076-.158.11-.238a1.7 1.7 0 00.081-.2.559.559 0 00.042-.109c.038-.1.07-.191.1-.286s.052-.16.073-.241a.2.2 0 00.011-.035c.026-.113.055-.222.075-.328a.478.478 0 00.018-.09 6.84 6.84 0 00.088-.666v-.09c.008-.115.011-.226.011-.34a5.864 5.864 0 00-.943-3.2l-.047-.075a3.745 3.745 0 00-.13-.184 1.991 1.991 0 00-.138-.184 1.883 1.883 0 00-.138-.169.974.974 0 00-.13-.146 2.5 2.5 0 00-.173-.188.962.962 0 00-.09-.087 2.719 2.719 0 00-.226-.21 4.73 4.73 0 00-.468-.373c-.077-.053-.152-.107-.231-.158-.1-.063-.2-.121-.3-.177l-.2-.109-.043.221a4.206 4.206 0 01-.379 1.093 4.317 4.317 0 01-.566.852l-.155.182.227.078a4.409 4.409 0 01.526.218 4.3 4.3 0 011.516 1.249.535.535 0 01-.85.649 3.22 3.22 0 00-1.139-.939 3.232 3.232 0 00-3.725.614 3.231 3.231 0 00.024 4.6.533.533 0 11-.749.759 4.286 4.286 0 01-.954-1.4 4.342 4.342 0 01-.34-1.672 4.282 4.282 0 011.765-3.473l.188-.135-.189-.131a2.873 2.873 0 01-.379-.316 2.782 2.782 0 01-.029-3.911.533.533 0 01.766.742 1.717 1.717 0 00.021 2.412 1.717 1.717 0 001.751.418 1.754 1.754 0 00.486-.253.681.681 0 01.084-.05l.015-.008.012-.012a3.141 3.141 0 00.739-.954 3.223 3.223 0 00.353-1.467 1.957 1.957 0 00-.011-.2 1.389 1.389 0 00-.019-.222.3.3 0 00-.009-.06 1.5 1.5 0 00-.047-.237.709.709 0 00-.03-.121.5.5 0 00-.035-.121 1.574 1.574 0 00-.072-.206.309.309 0 00-.015-.041c0-.008-.007-.016-.011-.024a2.287 2.287 0 00-.1-.225.263.263 0 00-.027-.052 1.845 1.845 0 00-.118-.2.226.226 0 00-.041-.064 2.01 2.01 0 00-.143-.206l-.007-.008-.024-.031a1.374 1.374 0 00-.147-.168.3.3 0 00-.037-.043 1.082 1.082 0 00-.1-.1 3.239 3.239 0 00-5.475 2.341v18.224a3.235 3.235 0 003.238 3.236 3.28 3.28 0 001.113-.2c.05-.018.1-.038.149-.058.084-.035.166-.076.261-.122l.107-.064a1.781 1.781 0 00.181-.113c.081-.053.156-.11.236-.173.027-.024.051-.044.069-.063a1.627 1.627 0 00.159-.143l.016-.016c.01-.009.016-.018.037-.037.055-.06.111-.119.163-.183.015-.018.028-.033.041-.052" transform="translate(-3.317 -2.793)" fill="#161615" fill-rule="evenodd"/><path id="Контур_317" data-name="Контур 317" d="M34.093 26.64a3.212 3.212 0 10-3.212-3.212 3.218 3.218 0 003.212 3.212" transform="translate(-8.05 -5.269)" fill="#c2c2c1" fill-rule="evenodd"/><path id="Контур_318" data-name="Контур 318" d="M24.032 35.233a1.695 1.695 0 10-1.695-1.695 1.7 1.7 0 001.695 1.695" transform="translate(-5.823 -8.301)" fill="#c2c2c1" fill-rule="evenodd"/><path id="Контур_319" data-name="Контур 319" d="M19.628 25.252a1.326 1.326 0 10-1.328-1.326 1.328 1.328 0 001.326 1.326" transform="translate(-4.771 -5.891)" fill="#c2c2c1" fill-rule="evenodd"/><path id="Контур_320" data-name="Контур 320" d="M25.122 18.277a.834.834 0 10-.834-.834.835.835 0 00.834.834" transform="translate(-6.331 -4.329)" fill="#c2c2c1" fill-rule="evenodd"/></g></g></svg>