<svg xmlns="http://www.w3.org/2000/svg" width="41.027" height="41.026" viewBox="0 0 41.027 41.026"><defs><clipPath id="clip-path"><path id="Прямоугольник_180" data-name="Прямоугольник 180" fill="none" d="M0 0h41.027v41.026H0z"/></clipPath></defs><g id="Сгруппировать_243" data-name="Сгруппировать 243"><g id="Сгруппировать_237" data-name="Сгруппировать 237" clip-path="url(#clip-path)"><path id="Контур_244" data-name="Контур 244" d="M31.909 22.693a8.88 8.88 0 11-8.88-8.88 8.879 8.879 0 018.88 8.88" transform="translate(-2.233 -2.18)" fill="#c2c2c1" fill-rule="evenodd"/><path id="Контур_245" data-name="Контур 245" d="M42 39.417a2.145 2.145 0 11-2.145-2.145A2.145 2.145 0 0142 39.417" transform="translate(-5.95 -5.881)" fill="#c2c2c1" fill-rule="evenodd"/><path id="Контур_246" data-name="Контур 246" d="M20.513 41.026a20.5 20.5 0 1119.236-13.374 1.684 1.684 0 01-3.158-1.172 17.131 17.131 0 10-9.92 10.038 1.685 1.685 0 011.211 3.145 20.447 20.447 0 01-7.369 1.364" fill="#161615"/></g></g></svg>